<?xml version="1.0" encoding="utf-8"?>
<!-- Generator: Adobe Illustrator 24.1.1, SVG Export Plug-In . SVG Version: 6.00 Build 0)  -->
<svg version="1.1" id="Capa_1" xmlns="http://www.w3.org/2000/svg" xmlns:xlink="http://www.w3.org/1999/xlink" x="0px" y="0px"
	 viewBox="0 0 1500 1500" style="enable-background:new 0 0 1500 1500;" xml:space="preserve">
<style type="text/css">
	.st0{fill:#014C93;}
	.st1{fill:#FFFFFF;}
</style>
<g>
	<g>
		<path class="st0" d="M925,467.8l4.6,55.8h-240l4.6,6.6l-76-55.8l3.7-6.6H925z M682.2,551.8h141.2v55.8H685.9v134.9h-67.7V499
			L682.2,551.8z"/>
	</g>
	<g>
		<path class="st1" d="M821.3,738.2L821.3,738.2v0.2c-4.2,144.6,3.9,124-78.6,135.3l0,0c-2.2,0.3-4.3,0.5-6.5,0.7
			c-1.5,0.1-2.9,0.2-4.4,0.3s-3,0.1-4.5,0.2c-0.7,0-1.5,0-2.2,0c-2.2,0-4.4-0.1-6.6-0.2c-2.8-0.1-5.6-0.4-8.4-0.7
			c-0.2,0-0.4,0-0.6-0.1c-0.6-0.1-1.2-0.1-1.8-0.2c-49-6.6-85.8-40.5-88.7-82.1h65.7c0.6,3.6,0.9,6.7,2.5,9.4
			c2.6,4.5,5.9,7.8,8.4,9.8c0.6,0.5,1.4,1.1,2.2,1.7c0.3,0.2,0.7,0.5,1.1,0.7c2.2,1.5,5.1,3.1,8.6,4.4c0.3,0.1,0.6,0.2,0.9,0.3
			c2.6,1,5.5,1.8,8.8,2.3c0.1,0,0.3,0,0.4,0.1c1,0.2,2.1,0.3,3.2,0.4c0.7,0.1,1.5,0.1,2.2,0.1c0.8,0,1.5,0,2.3,0s1.5,0,2.3,0
			s1.5-0.1,2.2-0.1c12.6-1.1,21.1-6.6,25.2-9.9c3.9-3.2-0.9-59.9,0.8-69.6v-58.1L821.3,738.2z M823.4,607.7v109.9l-68.2-56.3
			L823.4,607.7z"/>
	</g>
</g>
</svg>
